/* XPM */
static char *result[] = {
/* columns rows colors chars-per-pixel */
"32 32 5 1 ",
"  c #110A03",
". c #F07508",
"X c #FBC531",
"o c #FFF23B",
"O c None",
/* pixels */
"OOOOOOOOOOOOOOOOOOOOOOOOOOOOOOOO",
"OOOOOOOOOOOOOOOOOOOOOOOOOOOOOOOO",
"OOOOOOOOOOOOOOOOOOOOOOOOOOOOOOOO",
"OOOOOOOOOOOOO      OOOOOOOOOOOOO",
"OOOOOOOOOOO  oooooo  OOOOOOOOOOO",
"OOOOOOOOOO oooooXXooo OOOOOOOOOO",
"OOOOOOOOOO oXXooXXXXo OOOOOOOOOO",
"OOOOOOOOO ooXXXXXoXXoo OOOOOOOOO",
"OOOOOOOOO oXX.ooXX.XXo OOOOOOOOO",
"OOOOOOOOO ooX.ooXo.Xoo OOOOOOOOO",
"OOOOOOOOO .XXoooXooXX. OOOOOOOOO",
"OOOOOOOOO .XXXXXXXXXX. OOOOOOOOO",
"OOOOOOOOO ..X.X...XX.. OOOOOOOOO",
"OOOOOOOOOO .XXX...XX. OOOOOOOOOO",
"OOOOOOOOOO ...X...... OOOOOOOOOO",
"OOOOOOOOOOO  ......  OOOOOOOOOOO",
"OOOOOOOOOOOOO      OOOOOOOOOOOOO",
"OOOOOOOOOOOO ooXX.. OOOOOOOOOOOO",
"OOOOOOOOOOOO        OOOOOOOOOOOO",
"OOOOOOOOOOOOOOO OOOOOOOOOOOOOOOO",
"OOOOOOOOOOOOOO OOOOOOOOOOOOOOOOO",
"OOOOOOOOOOOOOO OOOOOOOOOOOOOOOOO",
"OOOOOOOOOOOOOOO OOOOOOOOOOOOOOOO",
"OOOOOOOOOOOOOOOO OOOOOOOOOOOOOOO",
"OOOOOOOOOOOOOOOO OOOOOOOOOOOOOOO",
"OOOOOOOOOOOOOOO OOOOOOOOOOOOOOOO",
"OOOOOOOOOOOOOO OOOOOOOOOOOOOOOOO",
"OOOOOOOOOOOOOO OOOOOOOOOOOOOOOOO",
"OOOOOOOOOOOOOOO OOOOOOOOOOOOOOOO",
"OOOOOOOOOOOOOOOOOOOOOOOOOOOOOOOO",
"OOOOOOOOOOOOOOOOOOOOOOOOOOOOOOOO",
"OOOOOOOOOOOOOOOOOOOOOOOOOOOOOOOO"
};
