/* XPM */
static char *result[] = {
/* columns rows colors chars-per-pixel */
"32 32 12 1 ",
"  c black",
". c #322F28",
"X c #4B473B",
"o c #68665E",
"O c #736B51",
"+ c #A47728",
"@ c #D9AE2D",
"# c #C0BBAB",
"$ c #C4FFB4",
"% c #CDCDCD",
"& c gray87",
"* c white",
/* pixels */
"$$$$$$$$$$$$$$$$$ $$$$$$$$$$$$$$",
"$$$$$$$$$$$$$$$$ X  $$$$$$$$$$$$",
"$$$$$$$$$$$$$$$$$ XX  $$$$$$$$$$",
"$$$$$$$$$$$$$$$  XXXXX $$$$$$$$$",
"$$$$$$$$$$     XXXXX      $$$$$$",
"$$$$$$$$  XXXXXXXXX *****& $$$$$",
"$$$$$$  XXXXXXXXXX *******& $$$$",
"$$$$$ XXXXXXXXXXX *O #*# O*& $$$",
"$$$$$ XXXXXXXXXXX ***++****& $$$",
"$$$$ XXXXXXXXXXX ****++@***& $$$",
"$$$ XXXXXXXXXXXX ***@+@@@**&  $$",
"$$  XXXXXXXXXXXX ****+*****& X $",
"$ XXXXXXXXXXXXXX **********& X $",
"$ XXXXXXXXXXXXXX &*********& X $",
"$ XXXXXXXXXXXXXXX &*&*&*&*&& X $",
"$ XXXXXXXXXXXXXXXX * * * * & X $",
"$ XXXXXXXXXXXXXXXXX X X X X XX $",
"$ XXXXXXXXXXXXXXXXXXXXXXXXXXX. $",
"$ XXXXXXXXXXXXXXXXXXXXXXXXXX. $$",
"$ XXXXXooXXXXXXXXXXXXXXXXXX. $$$",
"$ %XX%ooXXXXXXX.XXXXXXXXXX. $$$$",
" %%%%%oXXXXXXX..XX...XXXX.. $$$$",
" %%%%oXXXXXX..........X... $$$$$",
"$   ...XXX........   ..... $$$$$",
"$$$$ ......       $$$ ...XX $$$$",
"$$$$$ ...X $$$$$$$$$$ ..X.X $$$$",
"$$$$$ ..XXX $$$$$$$$$ ..X.X $$$$",
"$$$$$ ..X.X $$$$$$$$$$ .@@.   $$",
"$$$$ @.@@. $$$$$$$$$$$$ @@. @@ $",
"$$$ @@@@@@@ $$$$$$$$$$ @@@@@@@@ ",
"$$$ +@ + @+@ $$$$$$$$$ + @+@  + ",
"$$$$  $ $   $$$$$$$$$$$ $   $$ $"
};
