/* XPM */
static char *result[] = {
/* columns rows colors chars-per-pixel */
"32 32 12 1 ",
"  c black",
". c #322F28",
"X c #4B473B",
"o c #68665E",
"O c #736B51",
"+ c #A47728",
"@ c #D9AE2D",
"# c #C0BBAB",
"$ c #C4FFB4",
"% c #CDCDCD",
"& c gray87",
"* c white",
/* pixels */
"$$$$$$$$$$$$$$ $$$$$$$$$$$$$$$$$",
"$$$$$$$$$$$$  X $$$$$$$$$$$$$$$$",
"$$$$$$$$$$  XX $$$$$$$$$$$$$$$$$",
"$$$$$$$$$ XXXXX  $$$$$$$$$$$$$$$",
"$$$$$$      XXXXX     $$$$$$$$$$",
"$$$$$ &***** XXXXXXXXX  $$$$$$$$",
"$$$$ &******* XXXXXXXXXX  $$$$$$",
"$$$ &*O #*# O* XXXXXXXXXXX $$$$$",
"$$$ &****++*** XXXXXXXXXXX $$$$$",
"$$$ &***@++**** XXXXXXXXXXX $$$$",
"$$  &**@@@+@*** XXXXXXXXXXXX $$$",
"$ X &*****+**** XXXXXXXXXXXX  $$",
"$ X &********** XXXXXXXXXXXXXX $",
"$ X &*********& XXXXXXXXXXXXXX $",
"$ X &&*&*&*&*& XXXXXXXXXXXXXXX $",
"$ X & * * * * XXXXXXXXXXXXXXXX $",
"$ XX X X X X XXXXXXXXXXXXXXXXX $",
"$ .XXXXXXXXXXXXXXXXXXXXXXXXXXX $",
"$$ .XXXXXXXXXXXXXXXXXXXXXXXXXX $",
"$$$ .XXXXXXXXXXXXXXXXXXooXXXXX $",
"$$$$ .XXXXXXXXXX.XXXXXXXoo%XX% $",
"$$$$ ..XXXX...XX..XXXXXXXo%%%%% ",
"$$$$$ ...X..........XXXXXXo%%%% ",
"$$$$$ .....   ........XXX...   $",
"$$$$ XX... $$$       ...... $$$$",
"$$$$ X.X.. $$$$$$$$$$ X... $$$$$",
"$$$$ X.X.. $$$$$$$$$ XXX.. $$$$$",
"$$   .@@. $$$$$$$$$$ X.X.. $$$$$",
"$ @@ .@@ $$$$$$$$$$$$ .@@.@ $$$$",
" @@@@@@@@ $$$$$$$$$$ @@@@@@@ $$$",
" +  @+@ + $$$$$$$$$ @+@ + @+ $$$",
"$ $$   $ $$$$$$$$$$$   $ $  $$$$"
};
