/* XPM */
static char *result[] = {
/* columns rows colors chars-per-pixel */
"64 64 4 1 ",
"  c #290000",
". c red",
"X c #FF9911",
"o c white",
/* pixels */
"                                                                ",
"                                                                ",
"                                                                ",
"                                                                ",
"                                                                ",
"                           XXXXX                                ",
"                           XXXXXXXX                             ",
"                           XXXXXXXXXXXX                         ",
"                           XXXXXXXXXXXXXXX                      ",
"                             XXXXXXXXXXXXXXX                    ",
"                                XXXXXXXXXXXX                    ",
"                                  XXXXXXXXXX                    ",
"                                 XXXXXXXXXXX                    ",
"                                XXXXXXXX                        ",
"                               XXXXXXXXXX                       ",
"                               XXXXXXXXXX                       ",
"                              XXXXXXXXXXXX                      ",
"                             XXXXXX  XXXXX                      ",
"                            XXXXXXX  XXXXXX                     ",
"                           XXXXXXX    XXXXX                     ",
"                          XXXXXXX     XXXXXX                    ",
"                         XXXXXXX       XXXXX                    ",
"                        XXXXXXX        XXXXXX                   ",
"                       XXXXXXX          XXXXX                   ",
"                      XXXXXXX           XXXXXX                  ",
"                      XXXXXX             XXXXX                  ",
"                     XXXXXX              XXXXX                  ",
"                    XXXXXX                XXXX                  ",
"                   XXXXXXX                XXXX                  ",
"                  XXXXXXX                .......                ",
"                  XXXXXX              .............             ",
"                  XXXXX             .................           ",
"                  XXXX             ...................          ",
"               ........           .....................         ",
"             ............        .......................        ",
"           ................      ...oooo................        ",
"          ..................    ....oooo.................       ",
"         ...................    ...ooooo.................       ",
"        ...................    ....ooooo..................      ",
"        ...oooo............    ....ooooo..................      ",
"       ....oooo............    ....ooooo..................      ",
"       ...ooooo............    ....ooooo..................      ",
"      ....ooooo............    ....ooooo..................      ",
"      ....ooooo............    ....ooooo..................      ",
"      ....ooooo............    .....oooo..................      ",
"      ....ooooo............    .....oooo..................      ",
"      ....ooooo.............    .........................       ",
"      ....ooooo.............    .........................       ",
"      .....oooo.............     ........oooo...........        ",
"      .....oooo.............     ........oooo...........        ",
"       ......................     .......oooo..........         ",
"       ......................      ......oooo.........          ",
"        .......oooo...........      .................           ",
"        .......oooo...........        .............             ",
"         ......oooo..........            .......                ",
"          .....oooo.........                                    ",
"           ................                                     ",
"             ............                                       ",
"               ........                                         ",
"                                                                ",
"                                                                ",
"                                                                ",
"                                                                ",
"                                                                "
};
