/* XPM */
static char *result[] = {
/* columns rows colors chars-per-pixel */
"32 32 3 1 ",
"  c black",
". c #7A471E",
"X c #C4FFB4",
/* pixels */
"XXXXXXXXXXXXXXXXXXXXXXXXXXXXXXXX",
"XXXXXXXXXX  XXXXXXXXXXXXXXXXXXXX",
"XXXXXXXXXXX XXXXXXXXXXXXXXXXXXXX",
"XXXXXXXXXXXX XXXXXXXXXXXXXXXXXXX",
"XXXXXXXXXXXX XXXXXXXXXXXXXXXXXXX",
"XXXXXX XXXXX XXXXXXXXXXXXXXXXXXX",
"XXXXXXX   XX XXXXXX  XX  XXXXXXX",
"XXXXXXXXX  X XXXXX   X   XXXXXXX",
"XXXXXXXXXX X     X X X X XXXXXXX",
"XXXXXXXXXX  ... .     X  XXXXXXX",
"XXXXXXXXXX .. . .. .    XXXXXXXX",
"XXXXXXXXX  .... .. .  . XXXXXXXX",
"XXXXXXXXX ..... .  .    XXXXXXXX",
"XXXXXXXXX  .    . ...   XXXXXXXX",
"XXXXXXXXXX   . .  .    XXXXXXXXX",
"XXXXXXXXXXX         XX XXXXXXXXX",
"XXXXXXXXXXX XXX XXXXX XXXXXXXXXX",
"XXXXXXXXXX  XXX XXXXX XXXXXXXXXX",
"XXXXXXXXX  XXXX  XXX   XXXXXXXXX",
"XXXXXXXXXXXXXX  XXXXXXXXXXXXXXXX",
"XXXXXXXXXXXXXXXXXXXXXXXXXXXXXXXX",
"XXXXXXXXXXXXXXXXXXXXXXXXXXXXXXXX",
"XXXXXXXXXXXXXXXXXXXXXXXXXXXXXXXX",
"XXXXXXXXXXXXXXXXXXXXXXXXXXXXXXXX",
"XXXXXXXXXXXXXXXXXXXXXXXXXXXXXXXX",
"XXXXXXXXXXXXXXXXXXXXXXXXXXXXXXXX",
"XXXXXXXXXXXXXXXXXXXXXXXXXXXXXXXX",
"XXXXXXXXXXXXXXXXXXXXXXXXXXXXXXXX",
"XXXXXXXXXXXXXXXXXXXXXXXXXXXXXXXX",
"XXXXXXXXXXXXXXXXXXXXXXXXXXXXXXXX",
"XXXXXXXXXXXXXXXXXXXXXXXXXXXXXXXX",
"XXXXXXXXXXXXXXXXXXXXXXXXXXXXXXXX"
};
