/* XPM */
static char *result[] = {
/* columns rows colors chars-per-pixel */
"32 32 6 1 ",
"  c black",
". c #4B473B",
"X c #C99600",
"o c #FFF700",
"O c #C4FFB4",
"+ c white",
/* pixels */
"OOOOOOOOOOOOOOOOOOOOOOOOOOOOOOOO",
"OOOOOOOOOOOOOOOOOOOOOOOOOOOOOOOO",
"OOOOOOOOO         OOOOOOOOOOOOOO",
"OOOOOOOO  +++++++   OOOOOOOOOOOO",
"OOOOOOOO ++++++++++  OOOOOOOOOOO",
"OOOOOOO ++++++   +++ OOOOOOOOOOO",
"OOOOOOO ++++  X + +++ OOOOOOOOOO",
"OOOOOO      +   +++++ OOOOOOOOOO",
"OOOOO  oooo ++++++++++ OOOOOOOOO",
"OOOO  ooo oo  ++++++++ OOOOOOOOO",
"OOOO ooooooooo +++++++ OOOOOOOOO",
"OOOO o        ++++++++ OOOOOOOOO",
"OOOO    ++++++++++++++ OOOOOOOOO",
"OOOO  O ++++++++++++++ OOOOOOOOO",
"OOOO OOO +++++++++++++ OOOOOOOOO",
"OOOOOOOO +++++++++++++ OOOOOOOOO",
"OOOOOOOO +++++++++++++     OOOOO",
"OOOOO    +++++++++++++ ...  OOOO",
"OOOO  .  ++++++++++++ .....  OOO",
"OOOO .. ++++++++++++  ...... OOO",
"OOO  .. ++++   +++   ....... OOO",
"OOO ....     .    .......... OOO",
"OOO ........................ OOO",
"OOO ........................ OOO",
"OOO ........................ OOO",
"OOO ........................ OOO",
"OOO .......................  OOO",
"OOO  .....................  OOOO",
"OOOO ..  ....     ..  ...   OOOO",
"OOOOO  O     OO            OOOOO",
"OOOOOOOOOOOOOOOOOOOOOOOOOOOOOOOO",
"OOOOOOOOOOOOOOOOOOOOOOOOOOOOOOOO"
};
