/* XPM */
static char *result[] = {
/* columns rows colors chars-per-pixel */
"32 32 5 1 ",
"  c black",
". c #237036",
"X c #7A471E",
"o c #A97000",
"O c #C4FFB4",
/* pixels */
"OOOOOOOOOOOOOOOOOOOOOOOOOOOOOOOO",
"OOOOOOOOOOOOO...........OOOOOOOO",
"OOOOOOOOO..............OOOOOOOOO",
"OOOOOOOO...........  ....OOOOOOO",
"OOOOOOOOOOO.......o ...OOOOOOOOO",
"OOOOOOOOOOOO......  ..........OO",
"OOO...OOOO........ ............O",
"OO.......OO.. o..o ...ooooo ...O",
"OOO. o....... o..o ..o     ..OOO",
"O....  oo.... o..o ..  .. .....O",
"O.....   ooo. oo.o oo ...   ...O",
"OO...  .    o oooo    ........OO",
"O.... ..... oo oo   ...........O",
"OO..  .....  oooo  ...........OO",
"OO.......... oooo  .........OOOO",
"OOOO........ oooo .........OOOOO",
"OOOOO.......  ooo ..........OOOO",
"OOOO......... ooo ......OOOOOOOO",
"OOOOOO...OOOO ooo OO...OOOOOOOOO",
"OOOOOOOOOOOOO ooo  OOOOOOOOOOOOO",
"OOOOOOOOOOOOO oooo OOOOOOOOOOOOO",
"OOOOOOOOOOOOO oooo OOOOOOOOOOOOO",
"OOOOOOOOOOOOO oooo  OOOOOOOOOOOO",
"OOOOOOOOOOOO oooooo OOOOOOOOOOOO",
"OOOOOOOOOOOO oooooo OOOOOOOOOOOO",
"OOOOOOOOOOO  oooooo OOOOOOOOOOOO",
"OOOOOOOOOOO ooooooo  OOOOOOOOOOO",
"OOOOOOOOOOO   oo   o  OOOOOOOOOO",
"OOOOOO   O  X    X o   OOOOOOOOO",
"OOOOO  X   XXXX XX   X    OOOOOO",
"OOO   XOOXXXOOOXXOOXXXOOXX   OOO",
"OOOOOOOOOOOOOOOOOOOOOOOOOOOOOOOO"
};
