/* XPM */
static char *result[] = {
/* columns rows colors chars-per-pixel */
"32 32 7 1 ",
"  c #A16FD4",
". c #1AA4FF",
"X c #54FFF7",
"o c #C4FFB4",
"O c #B7B4FF",
"+ c #B2FFFC",
"@ c white",
/* pixels */
"oooooooooooooooooooooooooooooooo",
"oooooooooooooooooooo@ooooooooooo",
"ooo@oooooooOoOOOOooooooo+ooooooo",
"oooo@oooo+++oXXXOOo@oooooooooooo",
"ooooooooooo+++XXXOO@Xoo+oOooo@oo",
"ooooOoOOO..XX++XXXOO@XX+ooOo@ooo",
"o+OooooOOO...X++XXOO@XX+ooOooooo",
"ooooooXXXOOO..X+XXXO@@X+XOOooooo",
"oooooXXXXXXOO..X+XXOO@+XXOO oooo",
"ooo+++++++XXOO..+XXO@@+XOO oo+oo",
"oo+oXXXXX+++XOO.+XXO@X+OOO ooooo",
"ooooXXX@XXX+++OO.XO@@+XOO  ++ooo",
"oooXXX@@@@@@++OO.XO@+OOOO XXoOoo",
"oo+X@@OOOOOO@@OOOO@+OOOO  +Xoooo",
"ooX@OOOXXXXOOOOOOOOOOOO  ++XoOoo",
"oo@OOXXXX+++   OOOO    X++XXOOoo",
"ooOXXXX+++  OOOOOO+++X+++XXXOooo",
"ooOX+X++X OOOOOOOOOOXXXXXXXOo@oo",
"oooXXX+X OOO@@OO.@OOOXXXXOO@@ooo",
"oOooX+X OOO+@OOO.@@OOOOOOO@@oooo",
"oooo++  OO+@@OX+.OX@@@@@@@Xo+ooo",
"oooo+X OOX+@OOX+..XX++++++++oooo",
"oooo+o OXX+@OXX++.OXXXXXXXooo@oo",
"o@oo+o OXX+@OXXX+..OOXXXXooooooo",
"oooo+oOOoX+@OXXX+X..OOOXooooOooo",
"oooo+ooOoo+@OXXX++X..OOOOOoooooo",
"oooooooooo+@@OXXX++o...Ooooooooo",
"ooo@oooOoo+o@OOXoX++oooooooooooo",
"oooooooooo++@oOXooo++ooooooooooo",
"ooooooooooo+oooOOooooooo+@oooooo",
"ooooooooooooooooooO+oooooooooooo",
"oooooooooooooooooooooooooooooooo"
};
