/* XPM */
static char *result[] = {
/* columns rows colors chars-per-pixel */
"32 32 7 1 ",
"  c #A16FD4",
". c #1AA4FF",
"X c #54FFF7",
"o c #C4FFB4",
"O c #B7B4FF",
"+ c #B2FFFC",
"@ c white",
/* pixels */
"oooooooooooooooooooooooooooooooo",
"oooooooooooo+Ooooooooooooooooooo",
"oooooo@+oooooooOOooo+ooooooooooo",
"ooooooooooo++oooXOo@++oooooooooo",
"oooooooooooo++XoXOO@o+ooOooo@ooo",
"ooooooooO...o++XXXO@@+oooooooooo",
"ooooooOOOOO..X++XXXO@+ooOoo+oooo",
"oooOooooXOOO..X+XXXO@+XoOOo+oooo",
"oooooooXXXXOO..+XXXO@+XXO o+oo@o",
"oo@oooXXXXXXXO.++XXO@+XXO o+oooo",
"oooo++++++++XX..+XOO@+XOO X+oooo",
"ooo+oX@@@@@@@XO.+XO@@+OO  ++oooo",
"oooo@@OOOOOOO@@.OOO@+OOO X+XooOo",
"ooo@@OOXXXXOOO@.OO@@OOO X+XXXooo",
"oo@oOXXXXXXXOOOOOOOOOO X++X+XOoo",
"oooOXXX+++X+++OOOOOO  +++XXXXOoo",
"ooOOXX++X    OOOO   +++XXXXOO@oo",
"ooOoX++  OOOOOOOOOOOOXXXXOOO@Xoo",
"ooooX+  OOOO+@OOOO@@OOOOOO@@X+oo",
"ooOoXX OOOO+@OX.OO++@@@@@@XXXooo",
"ooo++  OOX+@@OX.OO+++XXX@XXXoooo",
"ooooo OOO+X@OXX+.OOX+++XXXXXo+oo",
"oo+oo OOX+@@OXX+..OOXX+++++++ooo",
"oooo OOXX+@OOXX+X..OOXXXXXXooooo",
"oooooOOX+X@@OXXX+X..OOOXXXoooooo",
"oooooOoo+XX@OOXX++X...OOOooooO+o",
"ooo@oOoo+XX@OOXXX++XX..OOOoOoooo",
"oo@oooOo+ooX@OOXXX+++ooooooooooo",
"oooooooooooo@oOOXXXo+++oooo@oooo",
"ooooooo+oooooooOOOOoOooooooo@ooo",
"ooooooooooo@oooooooooooooooooooo",
"oooooooooooooooooooooooooooooooo"
};
