/* XPM */
static char *result[] = {
/* columns rows colors chars-per-pixel */
"32 32 7 1 ",
"  c #A16FD4",
". c #1AA4FF",
"X c #54FFF7",
"o c #C4FFB4",
"O c #B7B4FF",
"+ c #B2FFFC",
"@ c white",
/* pixels */
"oooooooooooooooooooooooooooooooo",
"oooooooooooooooooooooooooooooooo",
"oooo@oooo+ooOoOOo@oooo@ooooooooo",
"ooooo@ooooo+oooOOo@o+oooOooooooo",
"oooooooo oo+XXXXXO@@o+oooooooooo",
"oooooOOOO   X++XXXO@X+oooooooooo",
"ooooOooOOOO   ++XXOO@+XooOooo@oo",
"oo+ooooXXOOOO  ++XXO@+XXoOooo+oo",
"oooo++++XXOOOO X+XXO@+XXXOOooooo",
"oooooXXX+++XOOO +XXO@+XXOO.ooooo",
"oooooXX@@@X+OOO XXXO@+XXOO.ooooo",
"o@ooX@@@O@@@+OO +XOO@+XOO..o+ooo",
"ooo@@OOOOOO@@+O +OOO@XXO..o++o+o",
"ooooOOOXXXXOO@OO+OO@XXO..X++ooOo",
"oooOOXXXXXXXXOOOOO@@O...X++Xoooo",
"ooOOXXXX+++..OOOOO....++++XooOoo",
"ooOXXX++X..OOOOOOOOO+++XXXXXXOoo",
"ooOXX++X..OOOOO OOOOXXXXXXXOOooo",
"ooOX++X..OO++@O OO@OOOXXXXOOoooo",
"oooo+X..OOX++@O OO@@@OOOOO@@@ooo",
"ooO++X.OOX++@OO+ OO+@@@@@@@o++oo",
"ooo+o..OXX+X@OX+ OOO+++++++++ooo",
"ooo+o.OOX++X@OX++ OOOXXXXooooooo",
"oooooOOXX+XX@OXX+X OOOXXoooooooo",
"oooooOOXX+X@@OXX++X  OOOOOoOoooo",
"oooooOoXX+XX@OOXX++X    Oooooooo",
"ooooooooX+XXX@OXXXX++Xoooooooooo",
"ooo@oOooo+XXX@OOX+XX++++++oooooo",
"oo@oooooo+ooXX@OXXXoooooooo@oooo",
"ooooooOooo+oo+X@OOoooooooooooooo",
"oooooo+ooooooooooooOooo@oooooooo",
"oooooooooooooooooooooooooooooooo"
};
