/* XPM */
static char *result[] = {
/* columns rows colors chars-per-pixel */
"32 32 7 1 ",
"  c #A16FD4",
". c #1AA4FF",
"X c #54FFF7",
"o c #C4FFB4",
"O c #B7B4FF",
"+ c #B2FFFC",
"@ c white",
/* pixels */
"oooooooooooooooooooooooooooooooo",
"oooooooo@oooOoooooooooooo+oooooo",
"ooooooooooooooOO@X+oo+oooOoooooo",
"oooo@ooooooooXXXO@XXoo+oooooo@oo",
"oooooo++++++XX+XOO@XXX+oooOo@ooo",
"ooooooooooX++XXXXO@XXX+Xoooooooo",
"oooooooO    X++XXOO@XX+XXoOooooo",
"ooooOoOOOOO  X++XXO@@X+XXOOooooo",
"ooooooooXXOOO X+XXO@XX+XXOOooooo",
"oooooooXXXXOOO ++XO@X++XOO.o+ooo",
"ooo+++++++++OOO +XO@X+XXO..o+ooo",
"oo++o@@@@@@@+OO +OO@++XOO.X++Ooo",
"ooo@@@OOOOO@@@OO O@++XOO..X+oooo",
"ooooOOXXXXOOO@OO O@++OO..X++XOoo",
"oooOOXXXXXXXOOOO OOOOO..X++XXOoo",
"ooOXXXXXX+++OOOOOOOOO..X++XXXOoo",
"ooOooX++++....OOOOO..+++XXXXOOoo",
"ooooX++X...O@@OOOOOXXXXXXXXOOooo",
"oOoo++X..OXX@OO+OO@OOXXXXOOOoooo",
"o+o++o..OXX@OOO+ O+@@OOOOOO@@ooo",
"ooo+o..OOX+@OOX+ OO+@@@O@@@Xoo@o",
"ooooo.OOXX+@OXXX OOO+X@@@XXooooo",
"ooooo.OOXX+@OXX+ OOOX+++XXXooooo",
"oooooOOXXX+@OXX+X OOOOXX++++oooo",
"oo+oooOoXX+@OXX++  OOOOXXoooo+oo",
"oo@oooOooX+@OOXX++   OOOOooOoooo",
"oooooooooo+X@OXXX++X   OOOOooooo",
"oooooooooo+o@@OXXXXX+oo oooooooo",
"oooooooOooo+o@oOOooo+ooooo@ooooo",
"ooooooooo@oooo@oOOoOoo+oooo@oooo",
"oooooooooooooooooooooooooooooooo",
"oooooooooooooooooooooooooooooooo"
};
