/* XPM */
static char *result[] = {
/* columns rows colors chars-per-pixel */
"24 24 8 1 ",
"  c #110A03",
". c #47125C",
"X c #9D916D",
"o c #981E82",
"O c #EE62A4",
"+ c #C4B493",
"@ c #F0E1C9",
"# c None",
/* pixels */
"########################",
"########################",
"########################",
"########################",
"########################",
"########################",
"########################",
"########################",
"#######          #######",
"###### OOOOOOOOOO ######",
"##### OOOOOoOOooOO #####",
"#### OOoOOOoOOoooOO ####",
"#### OooOOOooooOooO ####",
"#### OOooooooOoooOO ####",
"#### Ooo.o..ooooooO ####",
"#### .oooo..oo...o. ####",
"#### .o..ooooo...o. ####",
"#### .............. ####",
"##### ..        .. #####",
"######  @@ XX XX  ######",
"####### @+ ++ +X #######",
"####### XX++++XX #######",
"####### XXXXXXXX #######",
"########        ########"
};
