/* XPM */
static char *result[] = {
/* columns rows colors chars-per-pixel */
"32 32 7 1 ",
"  c black",
". c #BD720D",
"X c #EA8D11",
"o c #EAB411",
"O c #E5C876",
"+ c #C4FFB4",
"@ c #F1F2A0",
/* pixels */
"++++++++++++++++++++++++++++++++",
"+++++++++++++++++++   ++++++++++",
"++++++++++++++++++ XXX +++++++++",
"+++++++++++++++++ XXXXX ++++++++",
"+++++++++++ + ++ XXXXXXX +++++++",
"+++++++++  o o + XXXXXXX +++++++",
"++++++++ o ooo + XXXXXXX +++++++",
"+++++++++ oooo  XXXXXXXXX ++++++",
"++++++++++ oo + @ .XXX. @  + +++",
"+++++++++++ o + @ .XXX. @ o o  +",
"+++++++++++ o + XXXXXXXXX ooo o ",
"+++++++++++ oo  XXXXXXXXX  ooo +",
"++++++++++++ oo  XXXXXXX + oo ++",
"+++++++ + +++ oooXXXXXX ++ o +++",
"+++ ++ o o +++  ooXXXXoo  oo +++",
"++ @ + o oo +++ ooXXXXooooo ++++",
"+ @@ + ooo +++ ooXXXXoo    +++++",
"+ @ +++ oo +++ ooXXXXoo ++++++++",
" @@ ++++ oo + oooXXXXoo + ++++++",
" @ +++++ ooo oooXXXXoo + o  ++++",
" @ ++++++ ooooooXXXXoo + ooo +++",
" @ ++++++ oooooXXXXoo ++ oo ++++",
" @ +++++++ ooooXXXXoo   oooo +++",
" @@ ++++++ oooXXXXoooooooo  ++++",
"+ @ ++++++ oooXXXXoooooo  ++++++",
"+ @O  ++++ ooXXXXoooooo ++++++++",
"++ @@O    ooXXXXooooo  +++++++++",
"+++ O@OOOOXXXXXoooo  +++++++++++",
"++++ O@@@@@@XXooo  +++++++++++++",
"+++++  OOOOXXoo  +++++++++++++++",
"+++++++        +++++++++++++++++",
"++++++++++++++++++++++++++++++++"
};
