/* XPM */
static char *result[] = {
/* columns rows colors chars-per-pixel */
"32 32 4 1 ",
"  c black",
". c #EA8D11",
"X c #EAB411",
"o c #C4FFB4",
/* pixels */
"oooooooooooooooooooooooooooooooo",
"oooooooooooooooooooooooooooooooo",
"oooooooooooooooooooooooooooooooo",
"ooooooooooooo oooooooo      oooo",
"oooooooooooo   ooooo   ....  ooo",
"oooooooooooo  ooooo  ....... ooo",
"ooooooooooooo  oooo ........ ooo",
"ooooooooooooo  ooo  . ...... ooo",
"ooooooooooooo X oo ......... ooo",
"oooooooooooooo X   ..... ..  ooo",
"oooooooooooooo  X  ........ oooo",
"ooooooooooooooo  XX....... ooooo",
"oooooooooooooo  XX......  oooooo",
"oooooooooooooo XX...XX   ooooooo",
"ooooooooooooo  XX..XX  ooooooooo",
"ooooooooooooo XX..XX X oooo oooo",
"oooooooooooo  X...X   X  o   ooo",
"oooooooo     XX..X  o   X   oooo",
"ooooooo  XX  X...X oooo   oooooo",
"oooo  o X   XX..XX ooooooooooooo",
"ooooo  X oo X...X  ooooooooooooo",
"oooooo  ooo X..XX oooooooooooooo",
"ooooooo ooo X..X    oooooooooooo",
"ooo oooooo  X.XX XX  ooooooooooo",
"ooo  oooo  X.XX    X ooooooooooo",
"ooo       ..XX  oo  X oooooooooo",
"oooo  .....X   oooo X oooooooooo",
"ooooo        ooooooo  oooooooooo",
"ooooooooooooooooooo     oooooooo",
"oooooooooooooooooooooooooooooooo",
"oooooooooooooooooooooooooooooooo",
"oooooooooooooooooooooooooooooooo"
};
