/* XPM */
static char *result[] = {
/* columns rows colors chars-per-pixel */
"48 48 6 1 ",
"  c #110A03",
". c #3E3030",
"X c #6D5D5B",
"o c #B0A28D",
"O c #EADFC2",
"+ c None",
/* pixels */
"++++++++++++++++++++++++++++++++++++++++++++++++",
"++++++++++++++++++++++++++++++++++++++++++++++++",
"++++++++++++++++++++++++++++++++++++++++++++++++",
"++++++++++++++++++++++++++++++++++++++++++++++++",
"++++++++++++++++++++++++++++++++++++++++++++++++",
"++++++++++++++++++++++++++++++++++++++++++++++++",
"++++++++++++++++++++++++++++++++++++++++++++++++",
"++++++++++++++++++++++++++++++++++++++++++++++++",
"+++++++++                              +++++++++",
"++++++++ OO OOOOOOOO OOOOOO OOOOOOOO OO ++++++++",
"++++++++ oX OooooooX OooooX OooooooX Oo ++++++++",
"++++++++ oX OooooooX OooooX OooooooX Oo ++++++++",
"++++++++ XX XXXXXXXX XXXXXX XXXXXXXX XX ++++++++",
"++++++++                                ++++++++",
"++++++++ OOOO oooo OOOOOOOOOO oooo OOOO ++++++++",
"++++++++ OooX oXX. OooooooooX oXX. OooX ++++++++",
"++++++++ OooX oXX. OooooooooX oXX. OooX ++++++++",
"++++++++ XXXX .... XXXXXXXXXX .... XXXX ++++++++",
"++++++++                                ++++++++",
"++++++++ oo oooooooo oooooo oooooooo oo ++++++++",
"++++++++ X. oXXXXXX. oXXXX. oXXXXXX. oX ++++++++",
"++++++++ X. oXXXXXX. oXXXX. oXXXXXX. oX ++++++++",
"++++++++ X. ........ oXXXX. ........ oX ++++++++",
"++++++++ ..          ......          .. ++++++++",
"++++++++                                ++++++++",
"++++++++ oo oooooooo oooooo oooooooo oo ++++++++",
"++++++++ X. oXXXXXX. oXXXX. oXXXXXX. oX ++++++++",
"++++++++ X. oXXXXXX. oXXXX. oXXXXXX. oX ++++++++",
"++++++++ .. ........ ...... ........ .. ++++++++",
"++++++++                                ++++++++",
"++++++++ OOOO oooo OOOOOOOOOO oooo OOOO ++++++++",
"++++++++ OooX oXX. OooooooooX oXX. OooX ++++++++",
"++++++++ OooX oXX. OooooooooX oXX. OooX ++++++++",
"++++++++ XXXX .... XXXXXXXXXX .... XXXX ++++++++",
"++++++++                                ++++++++",
"++++++++ OO OOOOOOOO OOOOOO OOOOOOOO OO ++++++++",
"++++++++ oX OooooooX OooooX OooooooX Oo ++++++++",
"++++++++ oX OooooooX OooooX OooooooX Oo ++++++++",
"++++++++ XX XXXXXXXX XXXXXX XXXXXXXX XX ++++++++",
"+++++++++                              +++++++++",
"++++++++++++++++++++++++++++++++++++++++++++++++",
"++++++++++++++++++++++++++++++++++++++++++++++++",
"++++++++++++++++++++++++++++++++++++++++++++++++",
"++++++++++++++++++++++++++++++++++++++++++++++++",
"++++++++++++++++++++++++++++++++++++++++++++++++",
"++++++++++++++++++++++++++++++++++++++++++++++++",
"++++++++++++++++++++++++++++++++++++++++++++++++",
"++++++++++++++++++++++++++++++++++++++++++++++++"
};
