/* XPM */
static char *result[] = {
/* columns rows colors chars-per-pixel */
"32 32 7 1 ",
"  c gray16",
". c #415227",
"X c #5C7C52",
"o c #747474",
"O c #ADCA98",
"+ c #C4FFB4",
"@ c white",
/* pixels */
"++++++++++++++++++++++++++++++++",
"+@@@@@@@@@@@@@@@@@@@@@@@@@@@@@o+",
"+@@OOOOOOOOOOOOOOOOOOOOOOOOOOo +",
"+@O@OOOOOOOOOOOOOOOOOOOOOOOOo. +",
"+@OO@OOOOOOOOOOOOOOOOOOOOOOo.. +",
"+@OOO@@@@@@@@@@@@@@@@@@@@@o... +",
"+@OOO@XXXXXXXXXXXXXXXXXXXX ... +",
"+@OOO@XXXXXXXXXXXXXXXXXXXX ... +",
"+@OOO@XXXXXXXXXXXXXXXXXXXX ... +",
"+@OOO@XXXXXXXXXXXXXXXXXXXX ... +",
"+@OOO@XXXXXXXXXXXXXXXXXXXX ... +",
"+@OOO@XXXXXXXXXXXXXXXXXXXX ... +",
"+@OOO@XXXXXXXXXXXXXXXXXXXX ... +",
"+@OOO@XXXXXXXXXXXXXXXXXXXX ... +",
"+@OOO@XXXXXXXXXXXXXXXXXXXX ... +",
"+@OOO@XXXXXXXXXXXXXXXXXXXX ... +",
"+@OOO@XXXXXXXXXXXXXXXXXXXX ... +",
"+@OOO@XXXXXXXXXXXXXXXXXXXX ... +",
"+@OOO@XXXXXXXXXXXXXXXXXXXX ... +",
"+@OOO@XXXXXXXXXXXXXXXXXXXX ... +",
"+@OOO@XXXXXXXXXXXXXXXXXXXX ... +",
"+@OOO@XXXXXXXXXXXXXXXXXXXX ... +",
"+@OOO@XXXXXXXXXXXXXXXXXXXX ... +",
"+@OOO@XXXXXXXXXXXXXXXXXXXX ... +",
"+@OOO@XXXXXXXXXXXXXXXXXXXX ... +",
"+@OOO@XXXXXXXXXXXXXXXXXXXX ... +",
"+@OOOo                     ... +",
"+@OOo...................... .. +",
"+@Oo........................ . +",
"+@o..........................  +",
"+o                             +",
"++++++++++++++++++++++++++++++++"
};
