/* XPM */
static char *result[] = {
/* columns rows colors chars-per-pixel */
"32 32 3 1 ",
"  c black",
". c #5C7C52",
"X c #C4FFB4",
/* pixels */
"XXXXXXXXXXXXXXXXXXXXXXXXXXXXXXXX",
"XX                            XX",
"X ............................ X",
"X ............................ X",
"X ............................ X",
"X ............................ X",
"X ............................ X",
"X ............................ X",
"X ............................ X",
"X ............................ X",
"X ............................ X",
"X ............................ X",
"X ............................ X",
"X ............................ X",
"X ............................ X",
"X ............................ X",
"X ............................ X",
"X ............................ X",
"X ............................ X",
"X ............................ X",
"X ............................ X",
"X ............................ X",
"X ............................ X",
"X ............................ X",
"X ............................ X",
"X ............................ X",
"X ............................ X",
"X ............................ X",
"X ............................ X",
"X ............................ X",
"XX                            XX",
"XXXXXXXXXXXXXXXXXXXXXXXXXXXXXXXX"
};
