/* XPM */
static char *result[] = {
/* columns rows colors chars-per-pixel */
"64 64 2 1 ",
"  c #290000",
". c #2121DE",
/* pixels */
"                                                                ",
"                                                                ",
"                                                                ",
"                                                                ",
"        ................................................        ",
"        ................................................        ",
"        ................................................        ",
"        ................................................        ",
"    ....                                                ....    ",
"    ....                                                ....    ",
"    ....                                                ....    ",
"    ....                                                ....    ",
"    ....                                                ....    ",
"    ....                                                ....    ",
"    ....                                                ....    ",
"    ....                                                ....    ",
"    ....                                                ....    ",
"    ....                                                ....    ",
"    ....                                                ....    ",
"    ....                                                ....    ",
"    ....                                                ....    ",
"    ....                                                ....    ",
"    ....                                                ....    ",
"    ....                                                ....    ",
"    ....                                                ....    ",
"    ....                                                ....    ",
"    ....                                                ....    ",
"    ....                                                ....    ",
"    ....                                                ....    ",
"    ....                                                ....    ",
"    ....                                                ....    ",
"    ....                                                ....    ",
"    ....                                                ....    ",
"    ....                                                ....    ",
"    ....                                                ....    ",
"    ....                                                ....    ",
"    ....                                                ....    ",
"    ....                                                ....    ",
"    ....                                                ....    ",
"    ....                                                ....    ",
"    ....                                                ....    ",
"    ....                                                ....    ",
"    ....                                                ....    ",
"    ....                                                ....    ",
"    ....                                                ....    ",
"    ....                                                ....    ",
"    ....                                                ....    ",
"    ....                                                ....    ",
"    ....                                                ....    ",
"    ....                                                ....    ",
"    ....                                                ....    ",
"    ....                                                ....    ",
"    ....                                                ....    ",
"    ....                                                ....    ",
"    ....                                                ....    ",
"    ....                                                ....    ",
"        ................................................        ",
"        ................................................        ",
"        ................................................        ",
"        ................................................        ",
"                                                                ",
"                                                                ",
"                                                                ",
"                                                                "
};
